# xmcd
#
# Track frame offsets: 
#        150
#        19895
#        39315
#        63550
#        84683
#        106824
#        128201
#        150768
#        171856
#        192770
#        211674
#
# Disc length: 3082 seconds
#
# Revision: 0
# Processed by: cddbd v1.5.2PL0 Copyright (c) Steve Scherf et al.
# Submitted via: ExactAudioCopyFreeDBPlugin 1.0
#
DISCID=830c080b
DTITLE=Denise LaSalle - 24 Hour Woman
DYEAR=2010
DGENRE=Blues
TTITLE0=Cheat Receipt
TTITLE1=Home Wrecker
TTITLE2=Too Many Women
TTITLE3=(I'm a) 24-Hour Woman
TTITLE4=If You Can't Keep it Up
TTITLE5=Ride On
TTITLE6=I'll be Your Kitten, Baby
TTITLE7=Three is a Crowd
TTITLE8=Older Woman
TTITLE9=YouHit One Over the Fence
TTITLE10=Let's Make Love (Like it's the Last Time)
EXTD=
EXTT0=
EXTT1=
EXTT2=
EXTT3=
EXTT4=
EXTT5=
EXTT6=
EXTT7=
EXTT8=
EXTT9=
EXTT10=
PLAYORDER=
